<?xml version="1.0" standalone="no"?>
<!DOCTYPE svg PUBLIC "-//W3C//DTD SVG 20010904//EN"
 "http://www.w3.org/TR/2001/REC-SVG-20010904/DTD/svg10.dtd">
<svg version="1.0" xmlns="http://www.w3.org/2000/svg"
 width="640.000000pt" height="640.000000pt" viewBox="0 0 640.000000 640.000000"
 preserveAspectRatio="xMidYMid meet">
<metadata>
Created by potrace 1.11, written by Peter Selinger 2001-2013
</metadata>
<g transform="translate(0.000000,640.000000) scale(0.100000,-0.100000)"
fill="#000000" stroke="none">
<path d="M3704 4547 l-1300 -1852 -125 0 c-117 0 -124 1 -127 20 -2 12 29 108
68 214 l70 193 0 602 c0 455 -3 605 -12 614 -17 17 -1839 17 -1856 0 -17 -17
-17 -2389 0 -2406 9 -9 103 -12 363 -12 260 0 354 -3 363 -12 8 -8 12 -49 12
-120 0 -96 2 -108 19 -118 30 -16 1833 -14 1849 2 8 8 12 48 12 113 0 65 4
107 13 118 10 15 40 17 247 19 l235 3 6 75 6 75 720 1415 c503 986 726 1416
739 1419 42 8 44 -14 44 -409 0 -279 -3 -379 -12 -388 -7 -7 -40 -12 -78 -12
-72 0 -90 -10 -90 -49 0 -32 156 -826 165 -841 3 -5 30 -10 59 -10 28 0 57 -5
64 -12 8 -8 12 -66 12 -196 0 -116 4 -191 11 -205 21 -41 53 -67 93 -78 87
-23 136 -76 136 -148 0 -44 -24 -97 -50 -111 -18 -10 -27 -7 -55 14 -37 29
-65 32 -95 14 -32 -20 -54 1 -60 58 -7 61 -23 90 -63 114 -41 25 -83 25 -124
0 -55 -33 -66 -60 -61 -150 4 -63 11 -92 37 -144 18 -36 29 -71 26 -77 -4 -6
-153 -132 -332 -280 -178 -148 -326 -276 -330 -285 -10 -28 26 -54 77 -54 46
0 49 2 326 231 153 128 300 249 327 270 l47 38 57 -20 c67 -23 148 -24 223 -5
46 12 58 13 75 1 11 -7 148 -126 305 -265 l285 -251 54 3 c61 3 85 24 65 56
-6 9 -138 130 -294 267 -156 138 -288 257 -293 266 -8 12 -2 27 27 64 46 61
76 157 76 245 0 138 -61 256 -171 331 -33 22 -61 49 -64 62 -3 12 -5 72 -3
132 3 104 4 110 25 113 12 2 26 9 31 15 10 11 122 789 122 842 0 33 -27 45
-98 45 -38 0 -64 5 -71 14 -8 10 -11 229 -9 827 l3 814 84 148 84 149 -24 22
c-42 40 -518 326 -541 326 -19 -1 -258 -336 -1324 -1853z m1417 1377 c175
-117 167 -87 75 -266 -43 -84 -86 -161 -96 -171 -18 -20 -47 -14 -54 11 -17
65 -87 475 -82 487 10 28 41 16 157 -61z m-343 -217 c15 -18 123 -523 116
-542 -4 -8 -15 -15 -25 -15 -23 0 -316 189 -324 209 -5 12 129 264 177 334 21
29 40 34 56 14z m516 -333 c3 -9 6 -293 6 -633 0 -467 -3 -620 -12 -629 -16
-16 -93 -15 -107 2 -8 10 -11 167 -9 587 l3 574 33 58 c26 43 39 57 57 57 12
0 26 -7 29 -16z m-719 -414 c75 -50 138 -97 141 -105 3 -7 -34 -88 -82 -179
-74 -141 -90 -166 -110 -166 -12 0 -25 4 -28 8 -9 15 -106 475 -106 504 0 26
15 40 37 33 7 -2 73 -45 148 -95z m-358 -142 c6 -7 34 -129 63 -271 42 -212
49 -261 39 -273 -7 -9 -20 -14 -29 -11 -37 10 -330 210 -330 226 0 14 133 222
197 309 25 34 44 40 60 20z m-157 -772 c112 -79 176 -130 177 -142 2 -10 -32
-86 -75 -169 -110 -215 -100 -220 -224 120 -54 148 -98 274 -98 280 0 14 21
35 35 35 5 0 89 -56 185 -124z m-423 -68 c21 -29 204 -528 201 -549 -1 -13
-11 -25 -20 -27 -16 -3 -438 271 -438 284 0 4 48 73 106 155 104 146 127 168
151 137z m-1859 -150 c17 -17 17 -729 0 -746 -9 -9 -117 -12 -424 -12 -362 0
-415 2 -428 16 -14 13 -16 61 -16 369 0 308 2 356 16 369 13 14 66 16 428 16
307 0 415 -3 424 -12z m1791 -570 c116 -84 213 -160 216 -170 7 -19 -161 -325
-187 -342 -13 -7 -21 -7 -28 0 -15 15 -260 612 -260 634 0 57 36 40 259 -122z
m-352 -413 c155 -341 162 -365 121 -373 -8 -1 -140 71 -294 162 -239 141 -279
168 -279 188 0 13 53 96 125 196 107 148 128 172 148 170 21 -3 43 -45 179
-343z"/>
<path d="M4246 1524 c-12 -12 -16 -37 -16 -110 0 -135 -1 -134 123 -134 56 0
108 -4 115 -8 9 -7 12 -51 10 -188 l-3 -179 -113 -5 c-85 -4 -115 -9 -122 -20
-13 -20 -13 -197 0 -221 10 -19 32 -19 993 -19 751 0 986 3 995 12 16 16 16
220 0 236 -8 8 -49 12 -119 12 -88 0 -108 3 -113 16 -12 31 -7 339 6 352 8 8
48 12 113 12 65 0 105 4 113 12 8 8 12 49 12 120 0 96 -2 108 -19 118 -13 7
-340 10 -990 10 -868 0 -971 -2 -985 -16z"/>
<path d="M523 1395 c-176 -48 -317 -195 -353 -370 -19 -89 -8 -623 13 -698 42
-145 130 -252 244 -299 l58 -23 1493 -3 c1432 -2 1497 -1 1586 17 199 40 309
134 346 293 13 60 13 683 -1 750 -26 122 -107 224 -224 279 -145 68 -23 63
-1645 66 -1241 2 -1473 0 -1517 -12z m2887 -515 c5 -8 10 -88 10 -177 0 -134
-3 -164 -16 -177 -14 -14 -151 -16 -1364 -16 -1213 0 -1350 2 -1364 16 -13 13
-16 43 -16 177 0 163 3 179 30 190 8 3 622 5 1363 4 1186 -2 1349 -4 1357 -17z"/>
</g>
</svg>
